<!-- Mira Hussain & Lovisa Hansen -->
<svg width="1920" height="226" viewBox="0 0 1920 226" xmlns="http://www.w3.org/2000/svg">
<rect x="65.7794" y="139.068" width="38.121" height="54.2491" rx="10" fill="#A86C38"/>
<path d="M75.4811 42.4538C79.1301 34.9538 89.8165 34.9538 93.4655 42.4538L148.903 156.399C152.135 163.041 147.298 170.774 139.911 170.774H29.0354C21.6488 170.774 16.8116 163.041 20.0432 156.399L75.4811 42.4538Z" fill="url(#paint0_linear_45_306)"/>
<rect x="130.292" y="163.26" width="29.3238" height="41.7865" rx="10" fill="#A86C38"/>
<path d="M135.597 93.7392C139.248 86.246 149.926 86.246 153.577 93.7392L192.498 173.622C195.734 180.264 190.897 188.002 183.508 188.002H105.666C98.2771 188.002 93.44 180.264 96.6764 173.622L135.597 93.7392Z" fill="url(#paint1_linear_45_306)"/>
<rect x="223.972" y="130.271" width="41.8221" height="59.516" rx="10" fill="#A86C38"/>
<path d="M235.488 22.4823C239.137 14.9822 249.824 14.9822 253.473 22.4823L315.845 150.68C319.077 157.322 314.239 165.055 306.853 165.055H182.108C174.722 165.055 169.884 157.322 173.116 150.68L235.488 22.4823Z" fill="url(#paint2_linear_45_306)"/>
<rect x="294.747" y="156.812" width="32.1708" height="45.8434" rx="10" fill="#A86C38"/>
<path d="M301.441 78.7499C305.092 71.2566 315.769 71.2566 319.42 78.7499L363.673 169.576C366.91 176.218 362.072 183.956 354.683 183.956H266.178C258.789 183.956 253.952 176.218 257.188 169.576L301.441 78.7499Z" fill="url(#paint3_linear_45_306)"/>
<rect x="182.39" y="154.116" width="31.3137" height="44.5618" rx="10" fill="#A86C38"/>
<path d="M188.754 78.0552C192.403 70.5552 203.089 70.5552 206.738 78.0553L249.422 165.786C252.654 172.428 247.816 180.161 240.43 180.161H155.062C147.676 180.161 142.839 172.428 146.07 165.786L188.754 78.0552Z" fill="url(#paint4_linear_45_306)"/>
<rect x="235.383" y="173.989" width="24.0875" height="34.3247" rx="10" fill="#A86C38"/>
<path d="M238.136 120.177C241.787 112.684 252.464 112.684 256.115 120.177L285.23 179.932C288.466 186.575 283.629 194.312 276.24 194.312H218.011C210.622 194.312 205.785 186.575 209.021 179.932L238.136 120.177Z" fill="url(#paint5_linear_45_306)"/>
<rect x="-11.7091" y="165.5" width="26.4727" height="37.6727" rx="10" fill="#A86C38"/>
<path d="M-7.71946 104.055C-4.07047 96.5552 6.61593 96.5552 10.2649 104.055L43.8785 173.143C47.1101 179.786 42.2728 187.518 34.8863 187.518H-32.3408C-39.7274 187.518 -44.5646 179.786 -41.333 173.143L-7.71946 104.055Z" fill="url(#paint6_linear_45_306)"/>
<rect x="33.0909" y="182.3" width="20.3636" height="29.0182" rx="10" fill="#A86C38"/>
<path d="M34.0285 139.66C37.6794 132.167 48.357 132.167 52.0079 139.66L74.1484 185.102C77.3849 191.745 72.5477 199.482 65.1587 199.482H20.8777C13.4886 199.482 8.65151 191.745 11.8879 185.102L34.0285 139.66Z" fill="url(#paint7_linear_45_306)"/>
<rect width="20.3636" height="29.0182" rx="10" transform="matrix(-1 0 0 1 319.964 182.3)" fill="#A86C38"/>
<path d="M319.026 139.66C315.375 132.167 304.698 132.167 301.047 139.66L278.906 185.102C275.67 191.745 280.507 199.482 287.896 199.482H332.177C339.566 199.482 344.403 191.745 341.167 185.102L319.026 139.66Z" fill="url(#paint7_linear_45_306)"/>
<rect width="26.4727" height="37.6727" rx="10" transform="matrix(-1 0 0 1 218.764 165.5)" fill="#A86C38"/>
<path d="M214.774 104.055C211.125 96.5552 200.439 96.5552 196.79 104.055L163.176 173.143C159.944 179.786 164.782 187.518 172.168 187.518H239.395C246.782 187.518 251.619 179.786 248.388 173.143L214.774 104.055Z" fill="url(#paint6_linear_45_306)"/>
<rect width="20.3636" height="29.0182" rx="10" transform="matrix(-1 0 0 1 173.964 182.3)" fill="#A86C38"/>
<path d="M173.026 139.66C169.375 132.167 158.698 132.167 155.047 139.66L132.906 185.102C129.67 191.745 134.507 199.482 141.896 199.482H186.177C193.566 199.482 198.403 191.745 195.167 185.102L173.026 139.66Z" fill="url(#paint7_linear_45_306)"/>
<rect x="416.779" y="139.068" width="38.121" height="54.2491" rx="10" fill="#A86C38"/>
<path d="M426.481 42.4538C430.13 34.9538 440.817 34.9538 444.465 42.4538L499.903 156.399C503.135 163.041 498.298 170.774 490.911 170.774H380.035C372.649 170.774 367.812 163.041 371.043 156.399L426.481 42.4538Z" fill="url(#paint0_linear_45_306)"/>
<rect x="481.292" y="163.26" width="29.3238" height="41.7865" rx="10" fill="#A86C38"/>
<path d="M486.597 93.7392C490.248 86.246 500.926 86.246 504.577 93.7392L543.498 173.622C546.734 180.264 541.897 188.002 534.508 188.002H456.666C449.277 188.002 444.44 180.264 447.676 173.622L486.597 93.7392Z" fill="url(#paint1_linear_45_306)"/>
<rect x="574.972" y="130.271" width="41.8221" height="59.516" rx="10" fill="#A86C38"/>
<path d="M586.488 22.4823C590.137 14.9822 600.824 14.9822 604.473 22.4823L666.845 150.68C670.077 157.322 665.239 165.055 657.853 165.055H533.108C525.722 165.055 520.884 157.322 524.116 150.68L586.488 22.4823Z" fill="url(#paint2_linear_45_306)"/>
<rect x="645.747" y="156.812" width="32.1708" height="45.8434" rx="10" fill="#A86C38"/>
<path d="M652.441 78.7499C656.092 71.2566 666.769 71.2566 670.42 78.7499L714.673 169.576C717.91 176.218 713.072 183.956 705.683 183.956H617.178C609.789 183.956 604.952 176.218 608.188 169.576L652.441 78.7499Z" fill="url(#paint3_linear_45_306)"/>
<rect x="533.39" y="154.116" width="31.3137" height="44.5618" rx="10" fill="#A86C38"/>
<path d="M539.754 78.0552C543.403 70.5552 554.089 70.5552 557.738 78.0553L600.422 165.786C603.654 172.428 598.816 180.161 591.43 180.161H506.062C498.676 180.161 493.839 172.428 497.07 165.786L539.754 78.0552Z" fill="url(#paint4_linear_45_306)"/>
<rect x="586.383" y="173.989" width="24.0875" height="34.3247" rx="10" fill="#A86C38"/>
<path d="M589.136 120.177C592.787 112.684 603.464 112.684 607.115 120.177L636.23 179.932C639.466 186.575 634.629 194.312 627.24 194.312H569.011C561.622 194.312 556.785 186.575 560.021 179.932L589.136 120.177Z" fill="url(#paint5_linear_45_306)"/>
<rect x="339.291" y="165.5" width="26.4727" height="37.6727" rx="10" fill="#A86C38"/>
<path d="M343.281 104.055C346.93 96.5552 357.616 96.5552 361.265 104.055L394.878 173.143C398.11 179.786 393.273 187.518 385.886 187.518H318.659C311.273 187.518 306.435 179.786 309.667 173.143L343.281 104.055Z" fill="url(#paint6_linear_45_306)"/>
<rect x="384.091" y="182.3" width="20.3636" height="29.0182" rx="10" fill="#A86C38"/>
<path d="M385.028 139.66C388.679 132.167 399.357 132.167 403.008 139.66L425.148 185.102C428.385 191.745 423.548 199.482 416.159 199.482H371.878C364.489 199.482 359.651 191.745 362.888 185.102L385.028 139.66Z" fill="url(#paint7_linear_45_306)"/>
<rect width="26.4727" height="37.6727" rx="10" transform="matrix(-1 0 0 1 715.764 165.5)" fill="#A86C38"/>
<path d="M711.774 104.055C708.125 96.5552 697.439 96.5552 693.79 104.055L660.176 173.143C656.944 179.786 661.782 187.518 669.168 187.518H736.395C743.782 187.518 748.619 179.786 745.388 173.143L711.774 104.055Z" fill="url(#paint6_linear_45_306)"/>
<rect width="20.3636" height="29.0182" rx="10" transform="matrix(-1 0 0 1 670.964 182.3)" fill="#A86C38"/>
<path d="M670.026 139.66C666.375 132.167 655.698 132.167 652.047 139.66L629.906 185.102C626.67 191.745 631.507 199.482 638.896 199.482H683.177C690.566 199.482 695.403 191.745 692.167 185.102L670.026 139.66Z" fill="url(#paint7_linear_45_306)"/>
<rect width="26.4727" height="37.6727" rx="10" transform="matrix(-1 0 0 1 569.764 165.5)" fill="#A86C38"/>
<path d="M565.774 104.055C562.125 96.5552 551.439 96.5552 547.79 104.055L514.176 173.143C510.944 179.786 515.782 187.518 523.168 187.518H590.395C597.782 187.518 602.619 179.786 599.388 173.143L565.774 104.055Z" fill="url(#paint6_linear_45_306)"/>
<rect width="20.3636" height="29.0182" rx="10" transform="matrix(-1 0 0 1 524.964 182.3)" fill="#A86C38"/>
<path d="M524.026 139.66C520.375 132.167 509.698 132.167 506.047 139.66L483.906 185.102C480.67 191.745 485.507 199.482 492.896 199.482H537.177C544.566 199.482 549.403 191.745 546.167 185.102L524.026 139.66Z" fill="url(#paint7_linear_45_306)"/>
<rect width="38.121" height="54.2491" rx="10" transform="matrix(-1 0 0 1 1027.28 135.068)" fill="#A86C38"/>
<path d="M1017.57 38.4538C1013.92 30.9538 1003.24 30.9538 999.589 38.4538L944.151 152.399C940.92 159.041 945.757 166.774 953.143 166.774H1064.02C1071.41 166.774 1076.24 159.041 1073.01 152.399L1017.57 38.4538Z" fill="url(#paint0_linear_45_306)"/>
<rect width="29.3238" height="41.7865" rx="10" transform="matrix(-1 0 0 1 962.763 159.26)" fill="#A86C38"/>
<path d="M957.457 89.7392C953.806 82.246 943.129 82.246 939.478 89.7392L900.557 169.622C897.32 176.264 902.157 184.002 909.546 184.002H987.388C994.777 184.002 999.614 176.264 996.378 169.622L957.457 89.7392Z" fill="url(#paint1_linear_45_306)"/>
<rect width="41.8221" height="59.516" rx="10" transform="matrix(-1 0 0 1 869.083 126.271)" fill="#A86C38"/>
<path d="M857.566 18.4823C853.917 10.9822 843.231 10.9822 839.582 18.4823L777.21 146.68C773.978 153.322 778.815 161.055 786.202 161.055H910.946C918.333 161.055 923.17 153.322 919.939 146.68L857.566 18.4823Z" fill="url(#paint2_linear_45_306)"/>
<rect width="32.1708" height="45.8434" rx="10" transform="matrix(-1 0 0 1 798.307 152.812)" fill="#A86C38"/>
<path d="M791.614 74.7499C787.963 67.2566 777.285 67.2566 773.634 74.7499L729.381 165.576C726.145 172.218 730.982 179.956 738.371 179.956H826.877C834.266 179.956 839.103 172.218 835.866 165.576L791.614 74.7499Z" fill="url(#paint3_linear_45_306)"/>
<rect width="31.3137" height="44.5618" rx="10" transform="matrix(-1 0 0 1 910.664 150.116)" fill="#A86C38"/>
<path d="M904.301 74.0552C900.652 66.5552 889.965 66.5552 886.316 74.0553L843.633 161.786C840.401 168.428 845.238 176.161 852.625 176.161H937.992C945.379 176.161 950.216 168.428 946.984 161.786L904.301 74.0552Z" fill="url(#paint4_linear_45_306)"/>
<rect width="24.0875" height="34.3247" rx="10" transform="matrix(-1 0 0 1 857.672 169.989)" fill="#A86C38"/>
<path d="M854.919 116.177C851.268 108.684 840.59 108.684 836.939 116.177L807.825 175.932C804.589 182.575 809.426 190.312 816.815 190.312H875.044C882.433 190.312 887.27 182.575 884.033 175.932L854.919 116.177Z" fill="url(#paint5_linear_45_306)"/>
<rect width="26.4727" height="37.6727" rx="10" transform="matrix(-1 0 0 1 1104.76 161.5)" fill="#A86C38"/>
<path d="M1100.77 100.055C1097.13 92.5552 1086.44 92.5552 1082.79 100.055L1049.18 169.143C1045.94 175.786 1050.78 183.518 1058.17 183.518H1125.4C1132.78 183.518 1137.62 175.786 1134.39 169.143L1100.77 100.055Z" fill="url(#paint6_linear_45_306)"/>
<rect x="728.291" y="161.5" width="26.4727" height="37.6727" rx="10" fill="#A86C38"/>
<path d="M732.281 100.055C735.93 92.5552 746.616 92.5552 750.265 100.055L783.878 169.143C787.11 175.786 782.273 183.518 774.886 183.518H707.659C700.273 183.518 695.435 175.786 698.667 169.143L732.281 100.055Z" fill="url(#paint6_linear_45_306)"/>
<rect x="773.091" y="178.3" width="20.3636" height="29.0182" rx="10" fill="#A86C38"/>
<path d="M774.028 135.66C777.679 128.167 788.357 128.167 792.008 135.66L814.148 181.102C817.385 187.745 812.548 195.482 805.159 195.482H760.878C753.489 195.482 748.651 187.745 751.888 181.102L774.028 135.66Z" fill="url(#paint7_linear_45_306)"/>
<rect x="874.291" y="161.5" width="26.4727" height="37.6727" rx="10" fill="#A86C38"/>
<path d="M878.281 100.055C881.93 92.5552 892.616 92.5552 896.265 100.055L929.878 169.143C933.11 175.786 928.273 183.518 920.886 183.518H853.659C846.273 183.518 841.435 175.786 844.667 169.143L878.281 100.055Z" fill="url(#paint6_linear_45_306)"/>
<rect x="919.091" y="178.3" width="20.3636" height="29.0182" rx="10" fill="#A86C38"/>
<path d="M920.028 135.66C923.679 128.167 934.357 128.167 938.008 135.66L960.148 181.102C963.385 187.745 958.548 195.482 951.159 195.482H906.878C899.489 195.482 894.651 187.745 897.888 181.102L920.028 135.66Z" fill="url(#paint7_linear_45_306)"/>
<rect x="1123.78" y="135.068" width="38.121" height="54.2491" rx="10" fill="#A86C38"/>
<path d="M1133.48 38.4538C1137.13 30.9538 1147.82 30.9538 1151.47 38.4538L1206.9 152.399C1210.14 159.041 1205.3 166.774 1197.91 166.774H1087.04C1079.65 166.774 1074.81 159.041 1078.04 152.399L1133.48 38.4538Z" fill="url(#paint0_linear_45_306)"/>
<rect x="1188.29" y="159.26" width="29.3238" height="41.7865" rx="10" fill="#A86C38"/>
<path d="M1193.6 89.7392C1197.25 82.246 1207.93 82.246 1211.58 89.7392L1250.5 169.622C1253.73 176.264 1248.9 184.002 1241.51 184.002H1163.67C1156.28 184.002 1151.44 176.264 1154.68 169.622L1193.6 89.7392Z" fill="url(#paint1_linear_45_306)"/>
<rect x="1281.97" y="126.271" width="41.8221" height="59.516" rx="10" fill="#A86C38"/>
<path d="M1293.49 18.4823C1297.14 10.9822 1307.82 10.9822 1311.47 18.4823L1373.84 146.68C1377.08 153.322 1372.24 161.055 1364.85 161.055H1240.11C1232.72 161.055 1227.88 153.322 1231.12 146.68L1293.49 18.4823Z" fill="url(#paint2_linear_45_306)"/>
<rect x="1352.75" y="152.812" width="32.1708" height="45.8434" rx="10" fill="#A86C38"/>
<path d="M1359.44 74.7499C1363.09 67.2566 1373.77 67.2566 1377.42 74.7499L1421.67 165.576C1424.91 172.218 1420.07 179.956 1412.68 179.956H1324.18C1316.79 179.956 1311.95 172.218 1315.19 165.576L1359.44 74.7499Z" fill="url(#paint3_linear_45_306)"/>
<rect x="1240.39" y="150.116" width="31.3137" height="44.5618" rx="10" fill="#A86C38"/>
<path d="M1246.75 74.0552C1250.4 66.5552 1261.09 66.5552 1264.74 74.0553L1307.42 161.786C1310.65 168.428 1305.82 176.161 1298.43 176.161H1213.06C1205.68 176.161 1200.84 168.428 1204.07 161.786L1246.75 74.0552Z" fill="url(#paint4_linear_45_306)"/>
<rect x="1293.38" y="169.989" width="24.0875" height="34.3247" rx="10" fill="#A86C38"/>
<path d="M1296.14 116.177C1299.79 108.684 1310.46 108.684 1314.12 116.177L1343.23 175.932C1346.47 182.575 1341.63 190.312 1334.24 190.312H1276.01C1268.62 190.312 1263.78 182.575 1267.02 175.932L1296.14 116.177Z" fill="url(#paint5_linear_45_306)"/>
<rect x="1046.29" y="161.5" width="26.4727" height="37.6727" rx="10" fill="#A86C38"/>
<path d="M1050.28 100.055C1053.93 92.5552 1064.62 92.5552 1068.26 100.055L1101.88 169.143C1105.11 175.786 1100.27 183.518 1092.89 183.518H1025.66C1018.27 183.518 1013.44 175.786 1016.67 169.143L1050.28 100.055Z" fill="url(#paint6_linear_45_306)"/>
<rect x="1091.09" y="178.3" width="20.3636" height="29.0182" rx="10" fill="#A86C38"/>
<path d="M1092.03 135.66C1095.68 128.167 1106.36 128.167 1110.01 135.66L1132.15 181.102C1135.38 187.745 1130.55 195.482 1123.16 195.482H1078.88C1071.49 195.482 1066.65 187.745 1069.89 181.102L1092.03 135.66Z" fill="url(#paint7_linear_45_306)"/>
<rect width="20.3636" height="29.0182" rx="10" transform="matrix(-1 0 0 1 1377.96 178.3)" fill="#A86C38"/>
<path d="M1377.03 135.66C1373.38 128.167 1362.7 128.167 1359.05 135.66L1336.91 181.102C1333.67 187.745 1338.51 195.482 1345.9 195.482H1390.18C1397.57 195.482 1402.4 187.745 1399.17 181.102L1377.03 135.66Z" fill="url(#paint7_linear_45_306)"/>
<rect width="26.4727" height="37.6727" rx="10" transform="matrix(-1 0 0 1 1276.76 161.5)" fill="#A86C38"/>
<path d="M1272.77 100.055C1269.13 92.5552 1258.44 92.5552 1254.79 100.055L1221.18 169.143C1217.94 175.786 1222.78 183.518 1230.17 183.518H1297.4C1304.78 183.518 1309.62 175.786 1306.39 169.143L1272.77 100.055Z" fill="url(#paint6_linear_45_306)"/>
<rect width="20.3636" height="29.0182" rx="10" transform="matrix(-1 0 0 1 1231.96 178.3)" fill="#A86C38"/>
<path d="M1231.03 135.66C1227.38 128.167 1216.7 128.167 1213.05 135.66L1190.91 181.102C1187.67 187.745 1192.51 195.482 1199.9 195.482H1244.18C1251.57 195.482 1256.4 187.745 1253.17 181.102L1231.03 135.66Z" fill="url(#paint7_linear_45_306)"/>
<rect x="1472.78" y="135.068" width="38.121" height="54.2491" rx="10" fill="#A86C38"/>
<path d="M1482.48 38.4538C1486.13 30.9538 1496.82 30.9538 1500.47 38.4538L1555.9 152.399C1559.14 159.041 1554.3 166.774 1546.91 166.774H1436.04C1428.65 166.774 1423.81 159.041 1427.04 152.399L1482.48 38.4538Z" fill="url(#paint0_linear_45_306)"/>
<rect x="1537.29" y="159.26" width="29.3238" height="41.7865" rx="10" fill="#A86C38"/>
<path d="M1542.6 89.7392C1546.25 82.246 1556.93 82.246 1560.58 89.7392L1599.5 169.622C1602.73 176.264 1597.9 184.002 1590.51 184.002H1512.67C1505.28 184.002 1500.44 176.264 1503.68 169.622L1542.6 89.7392Z" fill="url(#paint1_linear_45_306)"/>
<rect x="1630.97" y="126.271" width="41.8221" height="59.516" rx="10" fill="#A86C38"/>
<path d="M1642.49 18.4823C1646.14 10.9822 1656.82 10.9822 1660.47 18.4823L1722.84 146.68C1726.08 153.322 1721.24 161.055 1713.85 161.055H1589.11C1581.72 161.055 1576.88 153.322 1580.12 146.68L1642.49 18.4823Z" fill="url(#paint2_linear_45_306)"/>
<rect x="1701.75" y="152.812" width="32.1708" height="45.8434" rx="10" fill="#A86C38"/>
<path d="M1708.44 74.7499C1712.09 67.2566 1722.77 67.2566 1726.42 74.7499L1770.67 165.576C1773.91 172.218 1769.07 179.956 1761.68 179.956H1673.18C1665.79 179.956 1660.95 172.218 1664.19 165.576L1708.44 74.7499Z" fill="url(#paint3_linear_45_306)"/>
<rect x="1589.39" y="150.116" width="31.3137" height="44.5618" rx="10" fill="#A86C38"/>
<path d="M1595.75 74.0552C1599.4 66.5552 1610.09 66.5552 1613.74 74.0553L1656.42 161.786C1659.65 168.428 1654.82 176.161 1647.43 176.161H1562.06C1554.68 176.161 1549.84 168.428 1553.07 161.786L1595.75 74.0552Z" fill="url(#paint4_linear_45_306)"/>
<rect x="1642.38" y="169.989" width="24.0875" height="34.3247" rx="10" fill="#A86C38"/>
<path d="M1645.14 116.177C1648.79 108.684 1659.46 108.684 1663.12 116.177L1692.23 175.932C1695.47 182.575 1690.63 190.312 1683.24 190.312H1625.01C1617.62 190.312 1612.78 182.575 1616.02 175.932L1645.14 116.177Z" fill="url(#paint5_linear_45_306)"/>
<rect x="1395.29" y="161.5" width="26.4727" height="37.6727" rx="10" fill="#A86C38"/>
<path d="M1399.28 100.055C1402.93 92.5552 1413.62 92.5552 1417.26 100.055L1450.88 169.143C1454.11 175.786 1449.27 183.518 1441.89 183.518H1374.66C1367.27 183.518 1362.44 175.786 1365.67 169.143L1399.28 100.055Z" fill="url(#paint6_linear_45_306)"/>
<rect x="1440.09" y="178.3" width="20.3636" height="29.0182" rx="10" fill="#A86C38"/>
<path d="M1441.03 135.66C1444.68 128.167 1455.36 128.167 1459.01 135.66L1481.15 181.102C1484.38 187.745 1479.55 195.482 1472.16 195.482H1427.88C1420.49 195.482 1415.65 187.745 1418.89 181.102L1441.03 135.66Z" fill="url(#paint7_linear_45_306)"/>
<rect width="20.3636" height="29.0182" rx="10" transform="matrix(-1 0 0 1 1726.96 178.3)" fill="#A86C38"/>
<path d="M1726.03 135.66C1722.38 128.167 1711.7 128.167 1708.05 135.66L1685.91 181.102C1682.67 187.745 1687.51 195.482 1694.9 195.482H1739.18C1746.57 195.482 1751.4 187.745 1748.17 181.102L1726.03 135.66Z" fill="url(#paint7_linear_45_306)"/>
<rect width="26.4727" height="37.6727" rx="10" transform="matrix(-1 0 0 1 1625.76 161.5)" fill="#A86C38"/>
<path d="M1621.77 100.055C1618.13 92.5552 1607.44 92.5552 1603.79 100.055L1570.18 169.143C1566.94 175.786 1571.78 183.518 1579.17 183.518H1646.4C1653.78 183.518 1658.62 175.786 1655.39 169.143L1621.77 100.055Z" fill="url(#paint6_linear_45_306)"/>
<rect width="20.3636" height="29.0182" rx="10" transform="matrix(-1 0 0 1 1580.96 178.3)" fill="#A86C38"/>
<path d="M1580.03 135.66C1576.38 128.167 1565.7 128.167 1562.05 135.66L1539.91 181.102C1536.67 187.745 1541.51 195.482 1548.9 195.482H1593.18C1600.57 195.482 1605.4 187.745 1602.17 181.102L1580.03 135.66Z" fill="url(#paint7_linear_45_306)"/>
<rect width="41.8221" height="59.516" rx="10" transform="matrix(-1 0 0 1 1887.08 126.271)" fill="#A86C38"/>
<path d="M1875.57 18.4823C1871.92 10.9822 1861.23 10.9822 1857.58 18.4823L1795.21 146.68C1791.98 153.322 1796.82 161.055 1804.2 161.055H1928.95C1936.33 161.055 1941.17 153.322 1937.94 146.68L1875.57 18.4823Z" fill="url(#paint2_linear_45_306)"/>
<rect width="32.1708" height="45.8434" rx="10" transform="matrix(-1 0 0 1 1816.31 152.812)" fill="#A86C38"/>
<path d="M1809.61 74.7499C1805.96 67.2566 1795.29 67.2566 1791.63 74.7499L1747.38 165.576C1744.15 172.218 1748.98 179.956 1756.37 179.956H1844.88C1852.27 179.956 1857.1 172.218 1853.87 165.576L1809.61 74.7499Z" fill="url(#paint3_linear_45_306)"/>
<rect width="31.3137" height="44.5618" rx="10" transform="matrix(-1 0 0 1 1928.66 150.116)" fill="#A86C38"/>
<path d="M1922.3 74.0552C1918.65 66.5552 1907.97 66.5552 1904.32 74.0553L1861.63 161.786C1858.4 168.428 1863.24 176.161 1870.62 176.161H1955.99C1963.38 176.161 1968.22 168.428 1964.98 161.786L1922.3 74.0552Z" fill="url(#paint4_linear_45_306)"/>
<rect width="24.0875" height="34.3247" rx="10" transform="matrix(-1 0 0 1 1875.67 169.989)" fill="#A86C38"/>
<path d="M1872.92 116.177C1869.27 108.684 1858.59 108.684 1854.94 116.177L1825.83 175.932C1822.59 182.575 1827.43 190.312 1834.81 190.312H1893.04C1900.43 190.312 1905.27 182.575 1902.03 175.932L1872.92 116.177Z" fill="url(#paint5_linear_45_306)"/>
<rect x="1746.29" y="161.5" width="26.4727" height="37.6727" rx="10" fill="#A86C38"/>
<path d="M1750.28 100.055C1753.93 92.5552 1764.62 92.5552 1768.27 100.055L1801.88 169.143C1805.11 175.786 1800.27 183.518 1792.89 183.518H1725.66C1718.27 183.518 1713.44 175.786 1716.67 169.143L1750.28 100.055Z" fill="url(#paint6_linear_45_306)"/>
<rect x="1791.09" y="178.3" width="20.3636" height="29.0182" rx="10" fill="#A86C38"/>
<path d="M1792.03 135.66C1795.68 128.167 1806.36 128.167 1810.01 135.66L1832.15 181.102C1835.38 187.745 1830.55 195.482 1823.16 195.482H1778.88C1771.49 195.482 1766.65 187.745 1769.89 181.102L1792.03 135.66Z" fill="url(#paint7_linear_45_306)"/>
<path d="M1896.28 100.055C1899.93 92.5552 1910.62 92.5552 1914.27 100.055L1947.88 169.143C1951.11 175.786 1946.27 183.518 1938.89 183.518H1871.66C1864.27 183.518 1859.44 175.786 1862.67 169.143L1896.28 100.055Z" fill="url(#paint6_linear_45_306)"/>
<defs>
<linearGradient id="paint0_linear_45_306" x1="84.4733" y1="219.708" x2="84.4733" y2="23.9716" gradientUnits="userSpaceOnUse">
<stop stop-color="#507653"/>
<stop offset="1" stop-color="#344B36"/>
</linearGradient>
<linearGradient id="paint1_linear_45_306" x1="144.587" y1="225.573" x2="144.587" y2="75.2885" gradientUnits="userSpaceOnUse">
<stop stop-color="#507653"/>
<stop offset="1" stop-color="#344B36"/>
</linearGradient>
<linearGradient id="paint2_linear_45_306" x1="244.48" y1="218.74" x2="244.48" y2="4" gradientUnits="userSpaceOnUse">
<stop stop-color="#507653"/>
<stop offset="1" stop-color="#344B36"/>
</linearGradient>
<linearGradient id="paint3_linear_45_306" x1="310.431" y1="225.175" x2="310.431" y2="60.2991" gradientUnits="userSpaceOnUse">
<stop stop-color="#507653"/>
<stop offset="1" stop-color="#344B36"/>
</linearGradient>
<linearGradient id="paint4_linear_45_306" x1="197.746" y1="220.357" x2="197.746" y2="59.573" gradientUnits="userSpaceOnUse">
<stop stop-color="#507653"/>
<stop offset="1" stop-color="#344B36"/>
</linearGradient>
<linearGradient id="paint5_linear_45_306" x1="247.125" y1="225.175" x2="247.125" y2="101.726" gradientUnits="userSpaceOnUse">
<stop stop-color="#507653"/>
<stop offset="1" stop-color="#344B36"/>
</linearGradient>
<linearGradient id="paint6_linear_45_306" x1="1.27273" y1="221.5" x2="1.27273" y2="85.573" gradientUnits="userSpaceOnUse">
<stop stop-color="#507653"/>
<stop offset="1" stop-color="#344B36"/>
</linearGradient>
<linearGradient id="paint7_linear_45_306" x1="43.0182" y1="225.573" x2="43.0182" y2="121.209" gradientUnits="userSpaceOnUse">
<stop stop-color="#507653"/>
<stop offset="1" stop-color="#344B36"/>
</linearGradient>
</defs>
</svg>
