<!-- Mira Hussain -->
<svg width="40" height="40" viewBox="0 0 40 40" fill="none" xmlns="http://www.w3.org/2000/svg">
<circle cx="20" cy="20" r="20" transform="rotate(180 20 20)" fill="#507653"/>
<path d="M21.2443 7.2973C22.1171 7.90843 22.3292 9.1114 21.718 9.98419L10.2098 26.4197C9.59867 27.2925 8.3957 27.5046 7.52291 26.8934C6.65011 26.2823 6.438 25.0793 7.04913 24.2065L18.5574 7.77107C19.1685 6.89828 20.3715 6.68616 21.2443 7.2973Z" fill="#CFA16E"/>
<path d="M32.8197 26.8934C31.9469 27.5046 30.7439 27.2925 30.1328 26.4197L18.6245 9.98419C18.0134 9.11139 18.2255 7.90843 19.0983 7.29729C19.9711 6.68615 21.1741 6.89827 21.7852 7.77106L33.2934 24.2065C33.9046 25.0793 33.6925 26.2823 32.8197 26.8934Z" fill="#CFA16E"/>
</svg>
