<svg width="50" height="50" viewBox="0 0 50 50" xmlns="http://www.w3.org/2000/svg">
<circle cx="25" cy="25" r="25" fill="#507653"/>
<path d="M23.4447 40.8784C22.3537 40.1145 22.0885 38.6108 22.8524 37.5198L37.2377 16.9754C38.0017 15.8844 39.5054 15.6193 40.5964 16.3832C41.6874 17.1471 41.9525 18.6508 41.1886 19.7418L26.8033 40.2862C26.0394 41.3772 24.5356 41.6423 23.4447 40.8784Z" fill="#CFA16E"/>
<path d="M8.97541 16.3832C10.0664 15.6193 11.5701 15.8844 12.334 16.9754L26.7193 37.5198C27.4833 38.6108 27.2181 40.1145 26.1271 40.8784C25.0361 41.6423 23.5324 41.3772 22.7685 40.2862L8.3832 19.7418C7.61928 18.6508 7.88442 17.1471 8.97541 16.3832Z" fill="#CFA16E"/>
</svg>
