<svg width="40" height="40" viewBox="0 0 40 40" xmlns="http://www.w3.org/2000/svg">
<circle cx="20" cy="20" r="20" fill="#507653"/>
<path d="M18.7557 32.7027C17.8829 32.0916 17.6708 30.8886 18.282 30.0158L29.7902 13.5803C30.4013 12.7075 31.6043 12.4954 32.4771 13.1066C33.3499 13.7177 33.562 14.9207 32.9509 15.7935L21.4426 32.2289C20.8315 33.1017 19.6285 33.3138 18.7557 32.7027Z" fill="#CFA16E"/>
<path d="M7.18033 13.1066C8.05313 12.4954 9.25609 12.7075 9.86723 13.5803L21.3755 30.0158C21.9866 30.8886 21.7745 32.0916 20.9017 32.7027C20.0289 33.3138 18.8259 33.1017 18.2148 32.2289L6.70656 15.7935C6.09542 14.9207 6.30754 13.7177 7.18033 13.1066Z" fill="#CFA16E"/>
</svg>
